Coordinates
version=1
nRows=19
nColumns=24
inDegrees=yes

Units are S.I. units (second, meters, Newtons, ...)
Angles are in degrees.

endheader
time	pelvis_tilt	pelvis_list	pelvis_rotation	pelvis_tx	pelvis_ty	pelvis_tz	hip_flexion_r	hip_adduction_r	hip_rotation_r	knee_angle_r	ankle_angle_r	subtalar_angle_r	mtp_angle_r	hip_flexion_l	hip_adduction_l	hip_rotation_l	knee_angle_l	ankle_angle_l	subtalar_angle_l	mtp_angle_l	lumbar_extension	lumbar_bending	lumbar_rotation
      5.86000000	     64.37924383	      0.14580046	     -0.26780472	      0.65556661	      1.01791327	     -0.20467410	     -2.50620875	     -9.19866255	     11.38984518	    -59.38460168	    -13.44905900	     22.09668864	     69.02700669	     -9.07239208	    -10.40175432	      4.08429844	    -53.91610275	    -15.18923746	     33.30042008	     33.24388912	      0.00000000	      0.00000000	      0.00000000
      5.87000000	     64.45668756	      0.13926673	     -0.25062496	      0.65552782	      1.01793432	     -0.20466418	     -2.57867217	     -9.27308588	     11.49081500	    -59.26541437	    -13.43338729	     21.92902548	     68.81414981	     -9.15720704	    -10.40300411	      4.11084050	    -53.87860383	    -15.16987791	     33.34322544	     33.24145668	      0.00000000	      0.00000000	      0.00000000
      5.88000000	     64.52161189	      0.13230298	     -0.23596589	      0.65550327	      1.01796186	     -0.20467614	     -2.65815063	     -9.33860160	     11.56630680	    -59.09665929	    -13.44515950	     21.79381524	     68.74281158	     -9.23022006	    -10.39932792	      4.13444049	    -53.84507049	    -15.14665683	     33.38421644	     33.23692809	      0.00000000	      0.00000000	      0.00000000
      5.89000000	     64.57474901	      0.12692663	     -0.22308989	      0.65549375	      1.01799847	     -0.20469211	     -2.74143400	     -9.39295969	     11.61343569	    -58.89273668	    -13.47439312	     21.69235556	     68.76393686	     -9.29275828	    -10.39152182	      4.15556098	    -53.81248009	    -15.11975010	     33.42301076	     33.23085540	      0.00000000	      0.00000000	      0.00000000
      5.90000000	     64.61982836	      0.12468637	     -0.21050873	      0.65548936	      1.01804733	     -0.20470181	     -2.82414895	     -9.43357724	     11.62993480	    -58.67036975	    -13.51143609	     21.62438969	     68.83309363	     -9.34828932	    -10.38174728	      4.17457601	    -53.77964625	    -15.08974338	     33.45934359	     33.22374203	      0.00000000	      0.00000000	      0.00000000
      5.91000000	     64.66107745	      0.12591459	     -0.19675121	      0.65548583	      1.01810283	     -0.20470683	     -2.90342463	     -9.45836550	     11.61510454	    -58.44342973	    -13.54766245	     21.58830904	     68.91360371	     -9.40041282	    -10.37225527	      4.19151788	    -53.74715257	    -15.05752040	     33.49332462	     33.21607665	      0.00000000	      0.00000000	      0.00000000
      5.92000000	     64.70161430	      0.12982486	     -0.18086576	      0.65548304	      1.01815427	     -0.20471442	     -2.97899953	     -9.46601421	     11.57005908	    -58.22021542	    -13.57610445	     21.58145185	     68.97863773	     -9.45151546	    -10.36461730	      4.20616838	    -53.71659473	    -15.02416355	     33.52552124	     33.20833043	      0.00000000	      0.00000000	      0.00000000
      5.93000000	     64.74293465	      0.13521865	     -0.16254186	      0.65548161	      1.01819595	     -0.20472687	     -3.05270140	     -9.45574672	     11.49723389	    -58.00328855	    -13.59194244	     21.60048078	     69.01222170	     -9.50243753	    -10.35945379	      4.21826506	    -53.68969554	    -14.99087562	     33.55687714	     33.20092781	      0.00000000	      0.00000000	      0.00000000
      5.94000000	     64.78510790	      0.14123269	     -0.14211328	      0.65548190	      1.01823137	     -0.20473834	     -3.12715432	     -9.42692845	     11.39939364	    -57.79130066	    -13.59280225	     21.64182861	     69.00917558	     -9.55290524	    -10.35655187	      4.22769286	    -53.66761942	    -14.95889558	     33.58850782	     33.19420951	      0.00000000	      0.00000000	      0.00000000
      5.95000000	     64.82740747	      0.14767566	     -0.12050374	      0.65548545	      1.01826747	     -0.20474310	     -3.20444592	     -9.37896633	     11.27865419	    -57.58166513	    -13.57882037	     21.70216817	     68.97406997	     -9.60227430	    -10.35528042	      4.23463476	    -53.65060252	    -14.92938113	     33.62142921	     33.18840542	      0.00000000	      0.00000000	      0.00000000
      5.96000000	     64.86906327	      0.15473619	     -0.09882141	      0.65549546	      1.01830594	     -0.20474319	     -3.28518525	     -9.31175374	     11.13607047	    -57.37285292	    -13.55245539	     21.77883699	     68.91934285	     -9.65024155	    -10.35511015	      4.23966489	    -53.63793488	    -14.90326924	     33.65628677	     33.18362775	      0.00000000	      0.00000000	      0.00000000
      5.97000000	     64.90981598	      0.16235265	     -0.07758852	      0.65551138	      1.01834160	     -0.20474484	     -3.36816723	     -9.22637953	     10.97189364	    -57.16547996	    -13.51804243	     21.87013632	     68.86276802	     -9.69728143	    -10.35593828	      4.24373275	    -53.62826403	    -14.88114833	     33.69315675	     33.17988734	      0.00000000	      0.00000000	      0.00000000
      5.98000000	     64.95018737	      0.17003356	     -0.05622916	      0.65552338	      1.01837034	     -0.20475058	     -3.45067268	     -9.12531495	     10.78602697	    -56.96189788	    -13.48111001	     21.97543492	     68.82450700	     -9.74456411	    -10.35798226	      4.24798856	    -53.62007193	    -14.86316532	     33.73147299	     33.17713152	      0.00000000	      0.00000000	      0.00000000
      5.99000000	     64.99126752	      0.17746963	     -0.03336958	      0.65552017	      1.01839623	     -0.20475874	     -3.52947034	     -9.01173895	     10.57824658	    -56.76465675	    -13.44753576	     22.09505619	     68.82400105	     -9.79330121	    -10.36126394	      4.25344502	    -53.61214715	    -14.84898104	     33.77009622	     33.17529456	      0.00000000	      0.00000000	      0.00000000
      6.00000000	     65.03373428	      0.18521229	     -0.00783344	      0.65550547	      1.01842699	     -0.20476834	     -3.60249144	     -8.88868644	     10.34826026	    -56.57469801	    -13.42265551	     22.22998388	     68.87697970	     -9.84378771	    -10.36500783	      4.26055732	    -53.60395795	    -14.83779561	     33.80750585	     33.17434432	      0.00000000	      0.00000000	      0.00000000
      6.01000000	     65.07645211	      0.19455283	      0.02022933	      0.65549743	      1.01846252	     -0.20478193	     -3.67047993	     -8.75891762	     10.09593214	    -56.39007060	    -13.41041882	     22.38145104	     68.99288000	     -9.89462555	    -10.36744385	      4.26891651	    -53.59590830	    -14.82846690	     33.84207069	     33.17430691	      0.00000000	      0.00000000	      0.00000000
      6.02000000	     65.11611818	      0.20668314	      0.04885567	      0.65551133	      1.01849764	     -0.20480323	     -3.73693772	     -8.62556135	      9.82186933	    -56.20537724	    -13.41265820	     22.55048727	     69.17297414	     -9.94266151	    -10.36635828	      4.27726134	    -53.58947203	    -14.81972126	     33.87234587	     33.17525788	      0.00000000	      0.00000000	      0.00000000
      6.03000000	     65.14873012	      0.22200171	      0.07486749	      0.65554134	      1.01853908	     -0.20483316	     -3.80559179	     -8.49258289	      9.52819054	    -56.01223493	    -13.42852984	     22.73749399	     69.40946987	     -9.98391887	    -10.36026694	      4.28386361	    -53.58711983	    -14.81041976	     33.89734369	     33.17727735	      0.00000000	      0.00000000	      0.00000000
      6.04000000	     65.17186944	      0.24027787	      0.09525058	      0.65555346	      1.01860272	     -0.20487054	     -3.87682077	     -8.36390446	      9.21896591	    -55.80154107	    -13.45418601	     22.94189872	     69.68577030	    -10.01521603	    -10.34956571	      4.28714739	    -53.59181179	    -14.79981629	     33.91673710	     33.18037323	      0.00000000	      0.00000000	      0.00000000
